PathFileType	4	(X/Y/Z)	./resultDataOpenSim/trcMotMarkerGrf/sub09/qtm-01-02.trc
DataRate	CameraRate	NumFrames	NumMarkers	Units	OrigDataRate	OrigDataStartFrame	OrigNumFrames
250.000000	250.000000	6	24	m	250.000000	248	495
Frame#	Time	L.Toe.Tip			R.Toe.Tip			L.Ankle.Lat			R.Ankle.Lat			L.Ankle.Med			R.Ankle.Med			L.Heel			R.Heel			L.Knee.Lat			R.Knee.Lat			L.Knee.Med			R.Knee.Med			L.Thigh.Upper			R.Thigh.Upper			L.ASIS			R.ASIS			V.Sacral			L.Acromium			R.Acromium			C7			L.Elbow			R.Elbow			L.Wrist.Lat			R.Wrist.Lat
		X1	Y1	Z1	X2	Y2	Z2	X3	Y3	Z3	X4	Y4	Z4	X5	Y5	Z5	X6	Y6	Z6	X7	Y7	Z7	X8	Y8	Z8	X9	Y9	Z9	X10	Y10	Z10	X11	Y11	Z11	X12	Y12	Z12	X13	Y13	Z13	X14	Y14	Z14	X15	Y15	Z15	X16	Y16	Z16	X17	Y17	Z17	X18	Y18	Z18	X19	Y19	Z19	X20	Y20	Z20	X21	Y21	Z21	X22	Y22	Z22	X23	Y23	Z23	X24	Y24	Z24

248	0.988	0.1545774	0.039962671	0.026711865	0.2227338	0.11138336	0.16167476	0.0085668049	0.072495901	-0.011397059	0.086947847	0.16849645	0.17445151	0.027612526	0.091604157	0.08646203	0.11982988	0.19379708	0.082936091	-0.065457401	0.041385139	0.033865495	0.019061969	0.16102589	0.11671545	0.12371307	0.47276149	-0.063909482	0.30757603	0.55723116	0.21948461	0.12268432	0.47386752	0.060922858	0.30805127	0.5431669	0.093322136	0.10678975	0.89864767	-0.11807663	0.094954612	0.90573433	0.25392377	0.18749562	0.98427164	-0.051983317	0.17255988	0.99203108	0.18569158	0.021550961	1.0430924	0.067075003	0.19886131	1.4365065	-0.08823272	0.15075717	1.4478119	0.23770352	0.10890044	1.4932233	0.066558536	0.065962506	1.0914856	-0.17236141	0.016297225	1.1059399	0.30528971	0.26098104	0.90288651	-0.17418575	0.14730302	0.86892864	0.33225529
249	0.992	0.15472718	0.039957799	0.026652761	0.24188419	0.11063345	0.16076311	0.0082858117	0.072657086	-0.011023901	0.10461703	0.16419388	0.17402864	0.027524872	0.091678669	0.086704324	0.13670441	0.19061801	0.082500047	-0.065557847	0.041611199	0.034141258	0.036580693	0.15524528	0.11663533	0.12486725	0.47252639	-0.063777805	0.31518918	0.55843749	0.21896583	0.12335109	0.47367291	0.061382616	0.31625702	0.54478999	0.09334384	0.11186424	0.89837915	-0.11791	0.10081926	0.90594124	0.2541877	0.19281617	0.9838971	-0.052010146	0.17835078	0.99219384	0.18574867	0.027164265	1.0430202	0.067149549	0.20473562	1.4364391	-0.088314438	0.15672154	1.4476722	0.23767857	0.11475986	1.4931248	0.066350312	0.071913957	1.0912318	-0.17245426	0.021444387	1.1060771	0.30523074	0.26812637	0.90372783	-0.17367952	0.15237963	0.86896136	0.33281933
250	0.996	0.1548521	0.039914516	0.026629048	0.26109987	0.10987199	0.15980623	0.0080723983	0.072802247	-0.010698692	0.12238635	0.15990436	0.17366464	0.027459172	0.091743407	0.086898361	0.15364716	0.18746567	0.082113203	-0.065732747	0.041885971	0.034512212	0.054644229	0.14954047	0.11654333	0.12593145	0.47228421	-0.063641009	0.32252829	0.55945442	0.21842393	0.12393586	0.47356411	0.061839264	0.32434047	0.54626078	0.093358156	0.1168508	0.89805891	-0.11773639	0.10669338	0.90604385	0.25445117	0.1981479	0.98349234	-0.052043961	0.18416436	0.99226968	0.185809	0.032771634	1.0428925	0.067214347	0.21062372	1.4363021	-0.088404646	0.16267994	1.4474751	0.23765745	0.12061829	1.4929607	0.066151701	0.077886011	1.0909184	-0.17254459	0.026401972	1.1061631	0.30510191	0.27523986	0.90449935	-0.17315536	0.15748576	0.86892435	0.33338067
251	1	0.15487941	0.039816094	0.026699176	0.28034248	0.10910929	0.1588252	0.0081323491	0.072880534	-0.010581261	0.14025949	0.15566605	0.17333675	0.027542314	0.091814761	0.087001987	0.17067617	0.18432127	0.081771734	-0.065910646	0.042191831	0.034858822	0.073208581	0.14391489	0.11636554	0.12701153	0.4720436	-0.063517936	0.32999659	0.56048899	0.21808256	0.12481975	0.47349873	0.062147182	0.33230666	0.54758896	0.093382168	0.12168118	0.89771333	-0.11745155	0.11258697	0.90605055	0.25471376	0.20349441	0.983063	-0.052094133	0.18999142	0.99225321	0.18585713	0.038363995	1.0427206	0.06725156	0.21648992	1.4360918	-0.088470742	0.16861771	1.4472169	0.23763832	0.12646755	1.4927481	0.065936919	0.083853433	1.0905315	-0.17263538	0.031263088	1.1061872	0.30494626	0.28232514	0.90519813	-0.17261286	0.16262054	0.86881599	0.33393239
252	1.004	0.15482468	0.039700307	0.026830849	0.29955534	0.1083642	0.15785563	0.0083436187	0.07292695	-0.010575453	0.15823901	0.15152328	0.17301019	0.027808049	0.09189637	0.087017647	0.18779858	0.18117934	0.081463388	-0.066022184	0.042487921	0.035103747	0.091975436	0.13838184	0.11611572	0.12820522	0.47181647	-0.063421402	0.3377631	0.56164917	0.21806876	0.12602199	0.4734036	0.062344206	0.34015031	0.5487791	0.093453708	0.1262411	0.89737684	-0.1169522	0.11851291	0.90597467	0.25497417	0.20884938	0.98260255	-0.052166545	0.19582546	0.9921431	0.18588351	0.043941136	1.0425088	0.067263924	0.22232035	1.4358142	-0.08850325	0.17452865	1.4468914	0.23762381	0.13232763	1.4925065	0.065738226	0.08978875	1.0900587	-0.172723	0.03624106	1.1061241	0.30485294	0.28938261	0.90582521	-0.17205369	0.16778501	0.86863123	0.33447393
253	1.008	0.15476435	0.039612995	0.026937464	0.31870393	0.10764882	0.15692362	0.0083816078	0.073025998	-0.01042434	0.17631642	0.14748923	0.17267301	0.028145478	0.09198156	0.087015273	0.20501189	0.17806586	0.081177216	-0.06605963	0.042751951	0.035275507	0.11070126	0.13296228	0.11582525	0.12949426	0.47160662	-0.06333846	0.3457373	0.5628911	0.21832544	0.12730089	0.47323732	0.062555512	0.34786858	0.54982345	0.093589055	0.13047576	0.89706935	-0.11624031	0.12447378	0.90582161	0.25523328	0.2142163	0.98210591	-0.052257894	0.20167105	0.99194344	0.18588964	0.049513774	1.0422489	0.067271019	0.22813901	1.4354804	-0.088521536	0.18041754	1.4465005	0.23761748	0.13822893	1.4922398	0.065618343	0.095696786	1.0895122	-0.17280359	0.041437891	1.1059606	0.30486703	0.29641062	0.90638476	-0.17148063	0.17298539	0.8683704	0.33501166
